<mxfile host="app.diagrams.net" modified="2023-09-08T06:57:24.372Z" agent="Mozilla/5.0 (Macintosh; Intel Mac OS X 10_15_7) AppleWebKit/537.36 (KHTML, like Gecko) Chrome/116.0.0.0 Safari/537.36" etag="PdUwAUTM4_lgMXZf3Kun" version="21.7.2" type="github">
  <diagram name="Page-1" id="zHLgDOmuC-dMQdCIIoKX">
    <mxGraphModel dx="3238" dy="1794" grid="1" gridSize="10" guides="1" tooltips="1" connect="1" arrows="1" fold="1" page="1" pageScale="1" pageWidth="850" pageHeight="1100" math="0" shadow="0">
      <root>
        <mxCell id="0" />
        <mxCell id="1" parent="0" />
        <mxCell id="xWgIaNhQFOvdHh2SQqz0-29" value="Static Assets" style="rounded=1;whiteSpace=wrap;html=1;verticalAlign=bottom;" vertex="1" parent="1">
          <mxGeometry x="300" y="550" width="380" height="239.25" as="geometry" />
        </mxCell>
        <mxCell id="xWgIaNhQFOvdHh2SQqz0-17" value="Autoscaling Group" style="rounded=1;whiteSpace=wrap;html=1;fillColor=#dae8fc;strokeColor=#6c8ebf;verticalAlign=bottom;" vertex="1" parent="1">
          <mxGeometry x="490" y="100" width="290" height="180" as="geometry" />
        </mxCell>
        <mxCell id="xWgIaNhQFOvdHh2SQqz0-24" style="edgeStyle=orthogonalEdgeStyle;rounded=0;orthogonalLoop=1;jettySize=auto;html=1;" edge="1" parent="1" source="xWgIaNhQFOvdHh2SQqz0-1">
          <mxGeometry relative="1" as="geometry">
            <mxPoint x="480" y="400" as="targetPoint" />
            <Array as="points">
              <mxPoint x="338" y="400" />
            </Array>
          </mxGeometry>
        </mxCell>
        <mxCell id="xWgIaNhQFOvdHh2SQqz0-26" style="edgeStyle=orthogonalEdgeStyle;rounded=0;orthogonalLoop=1;jettySize=auto;html=1;entryX=0;entryY=0.5;entryDx=0;entryDy=0;" edge="1" parent="1" source="xWgIaNhQFOvdHh2SQqz0-1" target="xWgIaNhQFOvdHh2SQqz0-17">
          <mxGeometry relative="1" as="geometry">
            <Array as="points">
              <mxPoint x="338" y="190" />
            </Array>
          </mxGeometry>
        </mxCell>
        <mxCell id="xWgIaNhQFOvdHh2SQqz0-1" value="" style="outlineConnect=0;dashed=0;verticalLabelPosition=bottom;verticalAlign=top;align=center;html=1;shape=mxgraph.aws3.elastic_load_balancing;fillColor=#F58534;gradientColor=none;" vertex="1" parent="1">
          <mxGeometry x="300" y="246" width="76.5" height="93" as="geometry" />
        </mxCell>
        <mxCell id="xWgIaNhQFOvdHh2SQqz0-5" style="edgeStyle=orthogonalEdgeStyle;rounded=0;orthogonalLoop=1;jettySize=auto;html=1;" edge="1" parent="1" source="xWgIaNhQFOvdHh2SQqz0-2" target="xWgIaNhQFOvdHh2SQqz0-4">
          <mxGeometry relative="1" as="geometry" />
        </mxCell>
        <mxCell id="xWgIaNhQFOvdHh2SQqz0-4" value="" style="sketch=0;outlineConnect=0;fontColor=#232F3E;gradientColor=none;fillColor=#2E27AD;strokeColor=none;dashed=0;verticalLabelPosition=bottom;verticalAlign=top;align=center;html=1;fontSize=12;fontStyle=0;aspect=fixed;pointerEvents=1;shape=mxgraph.aws4.rds_postgresql_instance;" vertex="1" parent="1">
          <mxGeometry x="670" y="147.5" width="78" height="78" as="geometry" />
        </mxCell>
        <mxCell id="xWgIaNhQFOvdHh2SQqz0-28" style="edgeStyle=orthogonalEdgeStyle;rounded=0;orthogonalLoop=1;jettySize=auto;html=1;" edge="1" parent="1" source="xWgIaNhQFOvdHh2SQqz0-13" target="xWgIaNhQFOvdHh2SQqz0-27">
          <mxGeometry relative="1" as="geometry" />
        </mxCell>
        <mxCell id="xWgIaNhQFOvdHh2SQqz0-13" value="" style="outlineConnect=0;dashed=0;verticalLabelPosition=bottom;verticalAlign=top;align=center;html=1;shape=mxgraph.aws3.cloudfront;fillColor=#F58536;gradientColor=none;" vertex="1" parent="1">
          <mxGeometry x="340" y="623.12" width="76.5" height="93" as="geometry" />
        </mxCell>
        <mxCell id="xWgIaNhQFOvdHh2SQqz0-2" value="" style="outlineConnect=0;dashed=0;verticalLabelPosition=bottom;verticalAlign=top;align=center;html=1;shape=mxgraph.aws3.ec2;fillColor=#F58534;gradientColor=none;" vertex="1" parent="1">
          <mxGeometry x="530" y="140" width="76.5" height="93" as="geometry" />
        </mxCell>
        <mxCell id="xWgIaNhQFOvdHh2SQqz0-20" value="Autoscaling Group" style="rounded=1;whiteSpace=wrap;html=1;fillColor=#dae8fc;strokeColor=#6c8ebf;verticalAlign=bottom;" vertex="1" parent="1">
          <mxGeometry x="490" y="310" width="290" height="180" as="geometry" />
        </mxCell>
        <mxCell id="xWgIaNhQFOvdHh2SQqz0-21" style="edgeStyle=orthogonalEdgeStyle;rounded=0;orthogonalLoop=1;jettySize=auto;html=1;" edge="1" parent="1" source="xWgIaNhQFOvdHh2SQqz0-23" target="xWgIaNhQFOvdHh2SQqz0-22">
          <mxGeometry relative="1" as="geometry" />
        </mxCell>
        <mxCell id="xWgIaNhQFOvdHh2SQqz0-22" value="" style="sketch=0;outlineConnect=0;fontColor=#232F3E;gradientColor=none;fillColor=#2E27AD;strokeColor=none;dashed=0;verticalLabelPosition=bottom;verticalAlign=top;align=center;html=1;fontSize=12;fontStyle=0;aspect=fixed;pointerEvents=1;shape=mxgraph.aws4.rds_postgresql_instance;" vertex="1" parent="1">
          <mxGeometry x="670" y="357.5" width="78" height="78" as="geometry" />
        </mxCell>
        <mxCell id="xWgIaNhQFOvdHh2SQqz0-23" value="" style="outlineConnect=0;dashed=0;verticalLabelPosition=bottom;verticalAlign=top;align=center;html=1;shape=mxgraph.aws3.ec2;fillColor=#F58534;gradientColor=none;" vertex="1" parent="1">
          <mxGeometry x="530" y="350" width="76.5" height="93" as="geometry" />
        </mxCell>
        <mxCell id="xWgIaNhQFOvdHh2SQqz0-27" value="" style="sketch=0;pointerEvents=1;shadow=0;dashed=0;html=1;strokeColor=none;fillColor=#DF8C42;labelPosition=center;verticalLabelPosition=bottom;verticalAlign=top;align=center;outlineConnect=0;shape=mxgraph.veeam2.aws_s3;" vertex="1" parent="1">
          <mxGeometry x="526.25" y="610.37" width="110.25" height="118.5" as="geometry" />
        </mxCell>
        <mxCell id="xWgIaNhQFOvdHh2SQqz0-37" value="" style="outlineConnect=0;dashed=0;verticalLabelPosition=bottom;verticalAlign=top;align=center;html=1;shape=mxgraph.aws3.rds;fillColor=#2E73B8;gradientColor=none;" vertex="1" parent="1">
          <mxGeometry x="690" y="180" width="72" height="81" as="geometry" />
        </mxCell>
        <mxCell id="xWgIaNhQFOvdHh2SQqz0-38" value="" style="outlineConnect=0;dashed=0;verticalLabelPosition=bottom;verticalAlign=top;align=center;html=1;shape=mxgraph.aws3.rds;fillColor=#2E73B8;gradientColor=none;" vertex="1" parent="1">
          <mxGeometry x="693" y="390" width="72" height="81" as="geometry" />
        </mxCell>
      </root>
    </mxGraphModel>
  </diagram>
</mxfile>
